# xmcd CD database file
#
# Track frame offsets:
#	150
#	30894
#	82635
#	95540
#	110270
#	122010
#	174532
#	191705
#	210220
#	267670
#	298487
#
# Disc length: 4419 seconds
#
# Revision: 0
# Processed by: cddbd v1.5.1PL0 Copyright (c) Steve Scherf et al.
# Submitted via: CDex 1.51
#
DISCID=9111410b
DTITLE=吉崎克彦 - 吉崎克彦作品集　風にきけ
DYEAR=1998
DGENRE=Other
TTITLE0=風に聞け PART?
TTITLE1=クレッセント
TTITLE2=風三章 一章 薫風の舞い
TTITLE3=風三章 二章 白南風
TTITLE4=風三章 三章 野分
TTITLE5=狂詩的ミューズ
TTITLE6=氷華二題 一、彩氷 「DIAMOND DUST」
TTITLE7=氷華二題 二、氷河
TTITLE8=オーロラ
TTITLE9=戯曲
TTITLE10=らせん
EXTD=YEAR: 1998
EXTT0=
EXTT1=
EXTT2=
EXTT3=
EXTT4=
EXTT5=
EXTT6=
EXTT7=
EXTT8=
EXTT9=
EXTT10=
PLAYORDER=
